# xmcd CD database file
#
# Track frame offsets:
#	150
#	118879
#	209696
#
# Disc length: 4131 seconds
#
# Revision: 2
# Processed by: cddbd v1.5.2PL0 Copyright (c) Steve Scherf et al.
# Submitted via: CDex 1.51
#
DISCID=2c102103
DTITLE=Die Diddl-Werkstatt - Diddl und die verflixte Sache mit der Liebe
DYEAR=2004
DGENRE=Kinder
TTITLE0=stimmt nicht
TTITLE1=Finden
TTITLE2=das führt nicht dazu
EXTD=YEAR: 2004
EXTT0=
EXTT1=
EXTT2=
PLAYORDER=
